<svg width="31" height="26" viewBox="0 0 31 26" fill="none" xmlns="http://www.w3.org/2000/svg">
<path d="M30.5 3.69861C29.3844 4.18799 28.1956 4.51236 26.9562 4.66986C28.2312 3.90861 29.2044 2.71236 29.6619 1.27049C28.4731 1.97924 27.1606 2.47986 25.7619 2.75924C24.6331 1.55736 23.0244 0.812988 21.2694 0.812988C17.8644 0.812988 15.1231 3.57674 15.1231 6.96486C15.1231 7.45236 15.1644 7.92111 15.2656 8.36736C10.1525 8.11799 5.62813 5.66736 2.58875 1.93424C2.05812 2.85486 1.74688 3.90861 1.74688 5.04299C1.74688 7.17299 2.84375 9.06111 4.47875 10.1542C3.49062 10.1355 2.52125 9.84861 1.7 9.39674C1.7 9.41549 1.7 9.43986 1.7 9.46424C1.7 12.453 3.83187 14.9355 6.6275 15.5074C6.12687 15.6442 5.58125 15.7099 5.015 15.7099C4.62125 15.7099 4.22375 15.6874 3.85062 15.6049C4.6475 18.0405 6.90875 19.8311 9.5975 19.8892C7.505 21.5261 4.84813 22.5124 1.97188 22.5124C1.4675 22.5124 0.98375 22.4899 0.5 22.428C3.22437 24.1849 6.45313 25.188 9.935 25.188C21.2525 25.188 27.44 15.813 27.44 7.68674C27.44 7.41486 27.4306 7.15236 27.4175 6.89174C28.6381 6.02549 29.6637 4.94361 30.5 3.69861Z" fill="#21243D"/>
</svg>
